<svg xmlns="http://www.w3.org/2000/svg" xmlns:xlink="http://www.w3.org/1999/xlink" version="1.1" id="Capa_1" x="0px" y="0px" width="612px" height="612px" viewBox="0 0 612 612" style="enable-background:new 0 0 612 612;" xml:space="preserve">
<g>
	<g id="Cloud">
		<g>
			<path d="M540,297c0-73.08-58.086-132.426-130.572-134.766C374.814,118.296,321.282,90,261,90     C160.542,90,78.624,168.426,72.576,267.372C29.466,289.908,0,334.962,0,387c0,74.574,60.426,135,135,135h360     c64.62,0,117-52.38,117-117C612,356.328,582.282,314.64,540,297z M495,468H135c-44.658,0-81-36.342-81-81     c0-30.222,16.704-57.726,43.596-71.766l27.018-14.13l1.854-30.438C130.824,199.638,189.918,144,261,144     c41.526,0,80.154,18.828,106.02,51.642l15.553,19.746l25.128,0.81C451.602,217.62,486,253.116,486,297v35.982l33.229,13.859     C542.771,356.67,558,379.494,558,405C558,439.74,529.74,468,495,468z" style="fill: rgb(0, 0, 0);"></path>
		</g>
	</g>
</g>
<g>
</g>
<g>
</g>
<g>
</g>
<g>
</g>
<g>
</g>
<g>
</g>
<g>
</g>
<g>
</g>
<g>
</g>
<g>
</g>
<g>
</g>
<g>
</g>
<g>
</g>
<g>
</g>
<g>
</g>
</svg>